<svg width="24" height="24" viewBox="0 0 24 24" fill="none" xmlns="http://www.w3.org/2000/svg">
<g clip-path="url(#clip0_4_1917)">
<path d="M23.7628 12.2759C23.7628 11.4602 23.6966 10.6401 23.5555 9.83757H12.2368V14.4586H18.7185C18.4495 15.9489 17.5853 17.2673 16.3198 18.1051V21.1034H20.1868C22.4576 19.0134 23.7628 15.9269 23.7628 12.2759Z" fill="white"/>
<path d="M12.2372 24.0002C15.4737 24.0002 18.2031 22.9375 20.1917 21.1032L16.3247 18.1049C15.2488 18.8368 13.8599 19.2513 12.2416 19.2513C9.11102 19.2513 6.4566 17.1392 5.50418 14.2996H1.51373V17.3906C3.55085 21.4428 7.70003 24.0002 12.2372 24.0002Z" fill="white"/>
<path d="M5.49972 14.3001C4.99706 12.8098 4.99706 11.1959 5.49972 9.70558V6.61464H1.51368C-0.188318 10.0054 -0.188318 14.0003 1.51368 17.391L5.49972 14.3001Z" fill="white"/>
<path d="M12.2373 4.74949C13.9481 4.72304 15.6016 5.3668 16.8406 6.5485L20.2667 3.12245C18.0973 1.08534 15.218 -0.0346338 12.2373 0.000640819C7.70009 0.000640819 3.55091 2.55805 1.51379 6.61464L5.49983 9.70558C6.44784 6.86156 9.10667 4.74949 12.2373 4.74949Z" fill="white"/>
</g>
<defs>
<clipPath id="clip0_4_1917">
<rect width="24" height="24" fill="white"/>
</clipPath>
</defs>
</svg>
